<svg xmlns="http://www.w3.org/2000/svg" viewBox="0 0 58.37 32.5"><defs><style>.cls-1{fill:#fff;}.cls-2{fill:none;stroke:#fff;stroke-miterlimit:10;stroke-width:0.5px;opacity:0.25;}</style></defs><title>Asset 2</title><g id="Layer_2" data-name="Layer 2"><g id="Layer_1-2" data-name="Layer 1"><path class="cls-1" d="M15.87,7.5c0,2.14-.73,2.71-2.78,2.71a12.85,12.85,0,0,1-1.56-.09v3.07H9.7V4.91a30.54,30.54,0,0,1,3.15-.11C15.14,4.8,15.87,5.39,15.87,7.5ZM14,7.5c0-1-.28-1.29-1.22-1.29H11.53v2.6h1.28C13.75,8.8,14,8.53,14,7.5Z"/><path class="cls-1" d="M24.2,13.19H22.26l-.62-2.53c-.16-.53-.39-.7-.89-.7H19.47v3.23h-1.8V4.91a30.75,30.75,0,0,1,3.16-.11c2.15,0,3.05.56,3.05,2.45,0,1.16-.4,1.91-1.58,2.05v.06a1.55,1.55,0,0,1,1.18,1.25ZM22,7.37c0-.92-.29-1.16-1.25-1.16H19.47V8.55h1.32C21.75,8.55,22,8.28,22,7.37Z"/><path class="cls-1" d="M32.78,9.05c0,3.32-.94,4.29-3.55,4.29s-3.54-1-3.54-4.29.92-4.29,3.54-4.29S32.78,5.73,32.78,9.05Zm-5.17,0c0,2.19.37,2.82,1.62,2.82s1.61-.63,1.61-2.82-.37-2.82-1.61-2.82S27.61,6.85,27.61,9.05Z"/><path class="cls-1" d="M58.25,10.72h-20V9.55h20Z"/><path class="cls-1" d="M15.11,19.48,15,20.73c-.69,0-1.71,0-2.59,0s-1.2,0-1.2.76.24.73.87.93l1.57.54a2.28,2.28,0,0,1,1.75,2.44c0,1.88-.82,2.38-3.07,2.38a13.22,13.22,0,0,1-2.84-.31l.1-1.32c1.54,0,2.21.06,2.74.06,1,0,1.22-.13,1.22-.8s-.23-.73-.78-.91l-1.67-.59a2.28,2.28,0,0,1-1.71-2.42c0-1.9.87-2.29,3-2.29A10.18,10.18,0,0,1,15.11,19.48Z"/><path class="cls-1" d="M19.11,27.59H17.29V19.31h1.82Z"/><path class="cls-1" d="M23.19,25.49c0,.43.18.61.65.61h2.84l.08,1.39a33.29,33.29,0,0,1-3.5.13,1.65,1.65,0,0,1-1.89-1.76V19.31h1.82Z"/><path class="cls-1" d="M33.88,26.16,34,27.5c-1.12.12-2.55.12-3.83.12A1.65,1.65,0,0,1,28.3,26v-5a1.65,1.65,0,0,1,1.83-1.66c1.28,0,2.71,0,3.83.12l-.08,1.35H30.7c-.39,0-.56.18-.56.61v1.26h3.3v1.32h-3.3v1.6c0,.44.17.62.56.62Z"/><path class="cls-1" d="M42.87,26.93a.58.58,0,0,1-.65.66H41.08c-.38,0-.55-.18-.73-.54l-2.17-4.42a7.59,7.59,0,0,1-.51-1.28h-.13a9.76,9.76,0,0,1,.09,1.32v4.92H35.89V20a.59.59,0,0,1,.66-.66h1.11c.39,0,.55.18.73.54l2.1,4.28c.18.36.41.87.6,1.33h.12c0-.46-.07-.92-.07-1.39V19.31h1.73Z"/><path class="cls-1" d="M50.84,19.44l-.16,1.37c-.78,0-1.28-.06-2.33-.06-1.2,0-1.56.61-1.56,2.7s.36,2.7,1.56,2.7a17.7,17.7,0,0,0,2.5-.11L51,27.4a8.12,8.12,0,0,1-2.65.33c-2.55,0-3.48-1.13-3.48-4.28s.93-4.28,3.48-4.28A8.9,8.9,0,0,1,50.84,19.44Z"/><path class="cls-1" d="M58.29,26.16l.08,1.34c-1.13.12-2.55.12-3.84.12A1.64,1.64,0,0,1,52.71,26v-5a1.64,1.64,0,0,1,1.82-1.66c1.29,0,2.71,0,3.84.12l-.08,1.35H55.11c-.4,0-.56.18-.56.61v1.26h3.29v1.32H54.55v1.6c0,.44.16.62.56.62Z"/><rect class="cls-2" x="0.25" y="0.25" width="39.5" height="32"/></g></g></svg>