<?xml version="1.0"?>
<svg xmlns="http://www.w3.org/2000/svg" height="512px" viewBox="0 1 511 511.99949" width="512px"><path d="m217.050781 108.894531c-37.351562 3.316407-71.304687 18.667969-97.925781 42.144531l20.296875 20.296876c5.96875 5.976562 5.96875 15.664062 0 21.644531-5.988281 5.988281-15.691406 5.949219-21.640625 0l-19.734375-19.738281c-20.257813 25.5-33.40625 56.871093-36.445313 91.109374h155.449219zm0 0" fill="#FFFFFF"/><path d="m507.519531 72.5-68.023437-68.019531c-5.972656-5.972657-15.660156-5.972657-21.632813 0-5.976562 5.976562-5.976562 15.660156 0 21.636719l23.191407 23.195312-33.890626 33.890625c7.285157 6.484375 14.722657 13.871094 21.628907 21.632813l33.894531-33.890626v-.003906l23.195312 23.195313c5.972657 5.972656 15.660157 5.976562 21.636719 0 5.976563-5.972657 5.976563-15.660157 0-21.636719zm0 0" fill="#FFFFFF"/><path d="m121.136719 370.128906c5.976562-5.976562 15.664062-5.976562 21.640625 0 5.976562 5.976563 5.976562 15.664063 0 21.632813l-19.796875 19.796875c29.703125 24.671875 67.828125 39.519531 109.367187 39.519531 40.175782 0 77.15625-13.878906 106.410156-37.125l-19.574218-19.570313c-5.976563-5.976562-5.976563-15.667968 0-21.644531 5.976562-5.964843 15.667968-5.964843 21.644531 0l20.132813 20.144531c26.640624-30.21875 42.824218-69.875 42.824218-113.230468 0-41.542969-14.847656-79.675782-39.519531-109.378906l-19.789063 19.789062c-5.988281 5.988281-15.671874 5.976562-21.632812 0-5.976562-5.976562-5.976562-15.65625 0-21.632812l19.871094-19.867188c-26.171875-22.082031-59.035156-36.472656-95.066406-39.667969v170.757813c0 8.445312-6.84375 15.296875-15.300782 15.296875h-170.746094c3.195313 36.023437 17.585938 68.886719 39.667969 95.058593zm0 0" fill="#FFFFFF"/><path d="m247.648438 47.792969v30.394531c104.351562 7.863281 186.734374 95.261719 186.734374 201.464844 0 111.6875-90.894531 202.023437-202.035156 202.023437-106.125 0-193.589844-82.324219-201.453125-186.726562h-30.394531c7.894531 121.015625 108.867188 217.050781 231.847656 217.050781 128.121094 0 232.359375-104.238281 232.359375-232.347656 0-122.992188-96.035156-223.964844-217.058593-231.859375zm0 0" fill="#FFFFFF"/></svg>
