<?xml version="1.0" encoding="utf-8"?>
<!-- Generator: Adobe Illustrator 22.1.0, SVG Export Plug-In . SVG Version: 6.00 Build 0)  -->
<svg version="1.1" id="Layer_1" xmlns="http://www.w3.org/2000/svg" xmlns:xlink="http://www.w3.org/1999/xlink" x="0px" y="0px"
	 viewBox="0 0 512 512" style="enable-background:new 0 0 512 512;" xml:space="preserve">
<style type="text/css">
	.st0{fill:#FFFFFF;}
</style>
<path class="st0" d="M512,469.6l-261-261c14.8-3.9,28.9-11.4,40.6-23.1c35.1-35.1,35.1-92.1,0-127.3c-32.9-32.9-84.8-34.6-120.1-5.8
	c-4.3-9.4-10.1-18.3-17.8-26c-35.1-35.1-92.1-35.1-127.3,0c-35.1,35.1-35.1,92.1,0,127.3c7.7,7.7,16.6,13.4,26,17.8
	c-28.7,35.3-27.1,87.2,5.9,120.1c35.1,35.1,92.1,35.1,127.3,0c11.6-11.6,19.2-25.7,23.1-40.6l112.5,112.5l-42.4,42.4l42.4,42.4
	l42.4-42.4l21.2,21.2l-42.4,42.4l42.4,42.4l42.4-42.4l42.4,42.4L512,469.6z M111.2,111.2c-11.7,11.7-30.7,11.7-42.4,0
	c-11.7-11.7-11.7-30.7,0-42.4c11.7-11.7,30.7-11.7,42.4,0C122.9,80.5,122.9,99.5,111.2,111.2z M143,249.1
	c-11.7,11.7-30.7,11.7-42.4,0c-11.7-11.7-11.7-30.7,0-42.4c11.7-11.7,30.7-11.7,42.4,0C154.7,218.4,154.7,237.4,143,249.1z
	 M249.1,143c-11.7,11.7-30.7,11.7-42.4,0c-11.7-11.7-11.7-30.7,0-42.4c11.7-11.7,30.7-11.7,42.4,0
	C260.8,112.3,260.8,131.3,249.1,143z"/>
</svg>
